<?xml version="1.0" standalone="no"?>
<!DOCTYPE svg PUBLIC "-//W3C//DTD SVG 20010904//EN"
 "http://www.w3.org/TR/2001/REC-SVG-20010904/DTD/svg10.dtd">
<svg version="1.0" xmlns="http://www.w3.org/2000/svg"
 width="200.000000pt" height="200.000000pt" viewBox="0 0 200.000000 200.000000"
 preserveAspectRatio="xMidYMid meet">

<g transform="translate(0.000000,200.000000) scale(0.100000,-0.100000)"
fill="#000000" stroke="none">
<path d="M624 1000 c0 -129 2 -182 3 -117 2 64 2 170 0 235 -1 64 -3 11 -3
-118z"/>
<path d="M730 1178 c1 -20 67 -172 77 -175 9 -3 86 178 78 185 -2 3 -14 -17
-25 -44 -11 -27 -26 -62 -33 -78 l-13 -29 -31 74 c-28 67 -54 100 -53 67z"/>
<path d="M927 1184 c-8 -8 1 -24 14 -24 5 0 9 7 9 15 0 15 -12 20 -23 9z"/>
<path d="M1383 1170 c-56 -34 -51 -129 9 -161 25 -13 105 -6 121 11 9 10 7 10
-13 4 -73 -25 -130 6 -130 70 0 65 55 100 112 71 41 -20 48 -19 19 5 -30 25
-77 25 -118 0z"/>
<path d="M1557 1184 c-8 -8 1 -24 14 -24 5 0 9 7 9 15 0 15 -12 20 -23 9z"/>
<path d="M1103 1145 c-6 -14 -7 -25 -3 -25 5 0 10 -23 12 -51 3 -57 26 -85 50
-60 11 10 9 12 -7 9 -18 -3 -20 3 -23 50 -3 44 0 52 15 52 17 1 17 1 1 11 -10
5 -18 17 -18 24 0 23 -14 17 -27 -10z"/>
<path d="M1640 1156 c0 -8 -6 -17 -12 -20 -10 -5 -10 -7 0 -12 7 -3 12 -25 12
-54 0 -30 5 -52 15 -60 16 -14 45 -7 45 11 0 8 -4 9 -13 0 -20 -16 -27 -3 -27
51 0 36 4 48 15 48 8 0 15 5 15 11 0 5 -5 7 -11 4 -6 -4 -13 2 -16 14 -6 24
-23 29 -23 7z"/>
<path d="M1036 1131 c-4 -6 -13 -8 -21 -4 -12 4 -15 -7 -15 -61 0 -37 4 -66
10 -66 6 0 10 21 10 48 0 56 11 77 35 68 11 -4 15 -2 13 6 -6 16 -25 21 -32 9z"/>
<path d="M930 1065 c0 -37 4 -65 10 -65 6 0 10 28 10 65 0 37 -4 65 -10 65 -6
0 -10 -28 -10 -65z"/>
<path d="M1200 1076 c0 -64 11 -76 68 -73 l42 1 0 63 c0 47 -3 63 -14 63 -9 0
-12 -7 -9 -20 8 -31 -6 -87 -24 -94 -27 -11 -43 13 -43 65 0 27 -4 49 -10 49
-5 0 -10 -24 -10 -54z"/>
<path d="M1560 1065 c0 -37 4 -65 10 -65 6 0 10 28 10 65 0 37 -4 65 -10 65
-6 0 -10 -28 -10 -65z"/>
<path d="M1739 1068 c30 -65 30 -98 -1 -105 -21 -6 -25 -23 -4 -23 19 0 29 15
64 104 35 87 36 119 1 40 l-21 -49 -20 48 c-11 26 -26 47 -34 47 -9 0 -4 -18
15 -62z"/>
<path d="M738 855 c2 -14 6 -25 7 -25 1 0 5 11 7 25 3 16 1 25 -7 25 -8 0 -10
-9 -7 -25z"/>
<path d="M962 855 c0 -16 2 -22 5 -12 2 9 2 23 0 30 -3 6 -5 -1 -5 -18z"/>
<path d="M821 856 c-8 -10 -8 -16 3 -25 11 -9 16 -9 22 0 4 8 3 9 -4 5 -7 -4
-12 -3 -12 3 0 5 5 11 12 13 8 3 9 6 1 11 -6 4 -16 1 -22 -7z"/>
<path d="M873 863 c-7 -3 -13 -12 -13 -21 0 -15 2 -15 10 -2 9 13 11 13 20 0
8 -13 10 -13 10 2 0 20 -10 27 -27 21z"/>
<path d="M923 863 c-18 -6 -16 -30 2 -37 9 -3 18 1 22 10 7 18 -7 33 -24 27z
m17 -23 c0 -5 -2 -10 -4 -10 -3 0 -8 5 -11 10 -3 6 -1 10 4 10 6 0 11 -4 11
-10z"/>
<path d="M992 858 c-16 -16 5 -43 23 -28 7 6 20 7 30 4 13 -5 14 -9 3 -15 -10
-7 -9 -9 5 -9 11 0 17 8 17 23 0 30 -10 40 -27 26 -9 -8 -17 -8 -26 0 -10 8
-17 7 -25 -1z m18 -14 c0 -8 -5 -12 -10 -9 -6 4 -8 11 -5 16 9 14 15 11 15 -7z
m50 6 c0 -5 -5 -10 -11 -10 -5 0 -7 5 -4 10 3 6 8 10 11 10 2 0 4 -4 4 -10z"/>
<path d="M1128 848 c4 -16 2 -19 -8 -13 -9 5 -11 4 -6 -4 4 -6 12 -9 17 -6 12
8 12 32 0 39 -5 4 -7 -4 -3 -16z"/>
<path d="M1184 856 c-4 -10 -2 -22 4 -28 8 -8 13 -7 18 6 4 10 2 22 -4 28 -8
8 -13 7 -18 -6z m13 -18 c-3 -8 -6 -5 -6 6 -1 11 2 17 5 13 3 -3 4 -12 1 -19z"/>
<path d="M1263 863 c-7 -3 -13 -12 -13 -21 0 -15 2 -15 10 -2 9 13 11 13 20 0
8 -13 10 -13 10 2 0 20 -10 27 -27 21z"/>
<path d="M1363 863 c-15 -6 -17 -33 -3 -33 6 0 10 8 11 18 0 14 2 14 9 -3 7
-16 9 -17 9 -3 1 20 -9 27 -26 21z"/>
<path d="M1411 857 c-9 -11 -8 -17 4 -27 12 -10 16 -9 21 5 9 23 -10 40 -25
22z m19 -13 c0 -8 -5 -12 -10 -9 -6 4 -8 11 -5 16 9 14 15 11 15 -7z"/>
<path d="M1533 863 c-7 -3 -13 -12 -13 -21 0 -15 2 -15 10 -2 9 13 11 13 20 0
8 -13 10 -13 10 2 0 20 -10 27 -27 21z"/>
<path d="M1604 857 c-6 -17 2 -37 16 -37 15 0 19 29 5 40 -12 10 -16 9 -21 -3z
m13 -19 c-3 -8 -6 -5 -6 6 -1 11 2 17 5 13 3 -3 4 -12 1 -19z"/>
<path d="M1700 852 c0 -11 4 -23 8 -26 10 -6 9 30 -1 40 -4 4 -7 -2 -7 -14z"/>
<path d="M1734 855 c-3 -8 -3 -19 0 -24 9 -13 36 -2 36 14 0 19 -30 27 -36 10z
m26 -9 c0 -3 -4 -8 -10 -11 -5 -3 -10 -1 -10 4 0 6 5 11 10 11 6 0 10 -2 10
-4z"/>
<path d="M773 846 c3 -29 27 -32 27 -4 0 17 -3 19 -9 9 -7 -11 -10 -11 -15 0
-3 9 -5 6 -3 -5z"/>
<path d="M1091 844 c0 -11 3 -14 6 -6 3 7 2 16 -1 19 -3 4 -6 -2 -5 -13z"/>
<path d="M1231 844 c0 -11 3 -14 6 -6 3 7 2 16 -1 19 -3 4 -6 -2 -5 -13z"/>
<path d="M1331 844 c0 -11 3 -14 6 -6 3 7 2 16 -1 19 -3 4 -6 -2 -5 -13z"/>
<path d="M1457 843 c3 -7 9 -13 13 -13 4 0 10 6 13 13 3 7 -3 13 -13 13 -10 0
-16 -6 -13 -13z"/>
<path d="M1501 844 c0 -11 3 -14 6 -6 3 7 2 16 -1 19 -3 4 -6 -2 -5 -13z"/>
<path d="M1576 845 c4 -8 8 -15 10 -15 2 0 4 7 4 15 0 8 -4 15 -10 15 -5 0 -7
-7 -4 -15z"/>
<path d="M1651 844 c0 -11 3 -14 6 -6 3 7 2 16 -1 19 -3 4 -6 -2 -5 -13z"/>
<path d="M1676 847 c3 -10 9 -15 12 -12 3 3 0 11 -7 18 -10 9 -11 8 -5 -6z"/>
</g>
</svg>
